HIERARCHY
ROOT Hips
{
  OFFSET 32.5108 99.5217 -10.2383
  CHANNELS 6 Xposition Yposition Zposition Zrotation Xrotation Yrotation
  JOINT spine
  {
    OFFSET 0 8.81704 0.507024
    CHANNELS 3 Zrotation Xrotation Yrotation
    JOINT spine1
    {
      OFFSET 0 10.7766 0
      CHANNELS 3 Zrotation Xrotation Yrotation
      JOINT spine2
      {
        OFFSET 0 10.3259 0
        CHANNELS 3 Zrotation Xrotation Yrotation
        JOINT Neck
        {
          OFFSET 0 26.511 1.26395
          CHANNELS 3 Zrotation Xrotation Yrotation
          JOINT Head
          {
            OFFSET 0 8.00966 0
            CHANNELS 3 Zrotation Xrotation Yrotation
            End Site
            {
              OFFSET 0 19.3879 -6.39386
            }
          }
        }
        JOINT RightShoulder
        {
          OFFSET -4.34795 11.1512 -0.605422
          CHANNELS 3 Zrotation Xrotation Yrotation
          JOINT RightArm
          {
            OFFSET 0 14.6258 0
            CHANNELS 3 Zrotation Xrotation Yrotation
            JOINT RightArmRoll
            {
              OFFSET 0 7.38339 0
              CHANNELS 3 Zrotation Xrotation Yrotation
              JOINT RightForeArm
              {
                OFFSET 0 21.5052 0
                CHANNELS 3 Zrotation Xrotation Yrotation
                JOINT RightForeArmRoll
                {
                  OFFSET 0 8.28532 0
                  CHANNELS 3 Zrotation Xrotation Yrotation
                  JOINT RightHand
                  {
                    OFFSET 0 16.6268 0
                    CHANNELS 3 Zrotation Xrotation Yrotation
                    End Site
                    {
                      OFFSET 0 0 0
                    }
                  }
                }
              }
            }
          }
        }
        JOINT LeftShoulder
        {
          OFFSET 4.34795 11.1512 -0.605422
          CHANNELS 3 Zrotation Xrotation Yrotation
          JOINT LeftArm
          {
            OFFSET 0 14.6258 0
            CHANNELS 3 Zrotation Xrotation Yrotation
            JOINT LeftArmRoll
            {
              OFFSET 0 7.3834 0
              CHANNELS 3 Zrotation Xrotation Yrotation
              JOINT LeftForeArm
              {
                OFFSET 0 21.5052 0
                CHANNELS 3 Zrotation Xrotation Yrotation
                JOINT LeftForeArmRoll
                {
                  OFFSET 0 8.28532 0
                  CHANNELS 3 Zrotation Xrotation Yrotation
                  JOINT LeftHand
                  {
                    OFFSET 0 16.6268 0
                    CHANNELS 3 Zrotation Xrotation Yrotation
                    End Site
                    {
                      OFFSET 0 0 0
                    }
                  }
                }
              }
            }
          }
        }
      }
    }
  }
  JOINT RightUpLeg
  {
    OFFSET -7.8151 -1.43309 -1.20217
    CHANNELS 3 Zrotation Xrotation Yrotation
    JOINT RightUpLegRoll
    {
      OFFSET 0 19.4959 0
      CHANNELS 3 Zrotation Xrotation Yrotation
      JOINT RightLeg
      {
        OFFSET 0 -24.1427 0
        CHANNELS 3 Zrotation Xrotation Yrotation
        JOINT RightLegRoll
        {
          OFFSET 0 24.2217 0
          CHANNELS 3 Zrotation Xrotation Yrotation
          JOINT RightFoot
          {
            OFFSET 0 20.1605 0
            CHANNELS 3 Zrotation Xrotation Yrotation
            JOINT RightToeBase
            {
              OFFSET 0 16.8532 0
              CHANNELS 3 Zrotation Xrotation Yrotation
              End Site
              {
                OFFSET 0.00714343 8.16186 -0.940781
              }
            }
          }
        }
      }
    }
  }
  JOINT LeftUpLeg
  {
    OFFSET 7.8151 -1.43309 -1.20217
    CHANNELS 3 Zrotation Xrotation Yrotation
    JOINT LeftUpLegRoll
    {
      OFFSET 0 19.496 0
      CHANNELS 3 Zrotation Xrotation Yrotation
      JOINT LeftLeg
      {
        OFFSET 0 24.1426 0
        CHANNELS 3 Zrotation Xrotation Yrotation
        JOINT LeftLegRoll
        {
          OFFSET 0 24.4456 0
          CHANNELS 3 Zrotation Xrotation Yrotation
          JOINT LeftFoot
          {
            OFFSET 0 19.9366 0
            CHANNELS 3 Zrotation Xrotation Yrotation
            JOINT LeftToeBase
            {
              OFFSET 0 16.8532 0
              CHANNELS 3 Zrotation Xrotation Yrotation
              End Site
              {
                OFFSET -0.0320138 8.16187 -0.94078
              }
            }
          }
        }
      }
    }
  }
}
MOTION
Frames: 11
Frame Time: 0.00208333
48.7474 99.3339 3.01654 0.925757 4.59232 4.16325 0.182651 -2.27372 0.1665 0.369748 -0.544122 0.316515 0.366021 1.10092 0.310372 -5.06493 21.6726 2.15929 -0.269638 3.34882 0.55693 62.2279 -5.92828 -3.86786 114.696 19.5296 0.628048 -3.59775e-006 1.24735e-007 2.91653e-007 18.5074 8.16763 -1.3391 -3.99779e-006 3.89604e-007 -3.00688 8.02927 -4.95139 0.697678 -62.1146 -4.66781 3.13359 -112.737 13.0577 -1.31373 -5.77782e-006 6.14791e-007 -1.03527e-006 -13.2874 9.00324 1.47154 7.69901e-006 7.99628e-007 3 -8.02886 -4.95144 -0.697669 -179.322 14.3533 -1.9822 180 7.01559e-015 178.978 177.909 17.8053 179.581 -5.35018e-007 -4.00495e-006 0.441307 -24.5748 71.1227 22.8303 8.13175 25.2381 -3.47936 179.651 14.1187 4.18385 4.54188e-006 -4.6773e-006 -0.924209 -2.58802 -16.6064 0.230042 -1.6134e-006 -4.95199e-006 -0.255671 20.4056 69.9382 -21.3186 -8.15594 25.6832 3.49151 
48.724 99.3079 3.03433 0.903033 4.64013 4.1439 0.189292 -2.26365 0.171742 0.383148 -0.523953 0.326359 0.379311 1.12108 0.319992 -5.07255 21.6313 2.15563 -0.269606 3.3052 0.552365 62.1929 -5.92438 -3.86392 114.739 19.5659 0.675711 -3.59775e-006 1.24735e-007 2.91653e-007 18.4343 8.22907 -1.35178 -3.99779e-006 3.89604e-007 -3.00688 8.02927 -4.95139 0.697678 -62.0932 -4.65423 3.12441 -112.77 13.0668 -1.27541 -5.77782e-006 6.14791e-007 -1.03527e-006 -13.2923 9.06879 1.48045 7.69901e-006 7.99628e-007 3 -8.02886 -4.95144 -0.697669 -179.262 14.5598 -2.03244 180 7.0156e-015 178.979 177.936 18.046 179.57 -5.35018e-007 -4.00495e-006 0.444948 -24.6646 71.1977 22.9243 8.13175 25.2381 -3.47936 179.685 14.377 4.12865 4.54188e-006 -4.6773e-006 -0.924149 -2.6163 -16.9579 0.224838 -1.6134e-006 -4.95199e-006 -0.262423 20.517 70.048 -21.4278 -8.15779 25.7099 3.49268 
48.727 99.2823 2.98937 0.880902 4.68588 4.1235 0.19585 -2.25346 0.177222 0.396384 -0.503527 0.336685 0.392433 1.14151 0.330097 -5.08028 21.5927 2.15215 -0.269456 3.26091 0.547814 62.1573 -5.92033 -3.85987 114.783 19.6015 0.72432 -3.59775e-006 1.24735e-007 2.91653e-007 18.3607 8.29042 -1.36453 -3.99779e-006 3.89604e-007 -3.00688 8.02927 -4.95139 0.697678 -62.0728 -4.63913 3.11442 -112.802 13.0753 -1.23828 -5.77782e-006 6.14791e-007 -1.03527e-006 -13.297 9.1334 1.48924 7.69901e-006 7.99628e-007 3 -8.02886 -4.95144 -0.697669 -179.201 14.7616 -2.0836 180 7.0156e-015 178.98 177.966 18.282 179.558 -5.35018e-007 -4.00495e-006 0.448433 -24.7524 71.2706 23.0166 8.13175 25.2381 -3.47936 179.72 14.6308 4.07454 4.54188e-006 -4.6773e-006 -0.924121 -2.64417 -17.3061 0.220016 -1.6134e-006 -4.95199e-006 -0.269134 20.6291 70.1572 -21.5377 -8.15963 25.7365 3.49387 
48.7357 99.2454 2.96058 0.859198 4.73017 4.10235 0.202349 -2.24317 0.182867 0.409504 -0.482921 0.347348 0.405434 1.16211 0.340542 -5.0881 21.5562 2.1488 -0.269225 3.21616 0.543273 62.1214 -5.9162 -3.85576 114.827 19.6366 0.773598 -3.59775e-006 1.24735e-007 2.91653e-007 18.2865 8.35173 -1.37734 -3.99779e-006 3.89604e-007 -3.00688 8.02927 -4.95139 0.697678 -62.0531 -4.62298 3.10386 -112.834 13.0835 -1.20198 -5.77782e-006 6.14791e-007 -1.03527e-006 -13.3015 9.19735 1.49795 7.69901e-006 7.99628e-007 3 -8.02886 -4.95144 -0.697669 -179.139 14.9601 -2.13542 180 7.0156e-015 178.982 177.996 18.5146 179.546 -5.35018e-007 -4.00495e-006 0.451808 -24.8388 71.3421 23.1078 8.13175 25.2381 -3.47936 179.754 14.8814 4.02116 4.54188e-006 -4.6773e-006 -0.924117 -2.67176 -17.6521 0.215459 -1.6134e-006 -4.95199e-006 -0.275818 20.7419 70.2658 -21.6483 -8.16146 25.763 3.49508 
48.726 99.2196 2.93148 0.837751 4.77364 4.08079 0.208813 -2.23284 0.188606 0.422553 -0.462213 0.358205 0.418362 1.18282 0.351181 -5.09598 21.5208 2.14552 -0.268952 3.17115 0.538738 62.0852 -5.912 -3.8516 114.871 19.6714 0.823267 -3.59775e-006 1.24735e-007 2.91653e-007 18.2122 8.41301 -1.39018 -3.99779e-006 3.89604e-007 -3.00688 8.02927 -4.95139 0.697678 -62.0338 -4.60622 3.09298 -112.865 13.0915 -1.16615 -5.77782e-006 6.14791e-007 -1.03527e-006 -13.3059 9.26093 1.50661 7.69901e-006 7.99628e-007 3 -8.02886 -4.95144 -0.697669 -179.077 15.1566 -2.18768 180 7.0156e-015 178.983 178.027 18.7453 179.534 -5.35018e-007 -4.00494e-006 0.45512 -24.9248 71.4126 23.1987 8.13175 25.2381 -3.47936 179.789 15.1302 3.96819 4.54188e-006 -4.6773e-006 -0.924126 -2.6992 -17.9968 0.21105 -1.6134e-006 -4.95199e-006 -0.282486 20.8557 70.3741 -21.7599 -8.16329 25.7894 3.49629 
48.6531 99.2252 3.11153 0.816392 4.81691 4.05911 0.215266 -2.22249 0.19437 0.435578 -0.441478 0.369109 0.431267 1.20355 0.361869 -5.10386 21.4856 2.14226 -0.268674 3.12608 0.534205 62.049 -5.9078 -3.84743 114.916 19.7062 0.873051 -3.59775e-006 1.24735e-007 2.91653e-007 18.1378 8.47427 -1.40303 -3.99779e-006 3.89604e-007 -3.00688 8.02927 -4.95139 0.697678 -62.0147 -4.58931 3.08202 -112.896 13.0994 -1.13043 -5.77782e-006 6.14791e-007 -1.03527e-006 -13.3103 9.32442 1.51525 7.69901e-006 7.99628e-007 3 -8.02886 -4.95144 -0.697669 -179.014 15.3527 -2.24015 180 7.01561e-015 178.984 178.058 18.9755 179.522 -5.35018e-007 -4.00494e-006 0.458416 -25.0112 71.4829 23.29 8.13175 25.2381 -3.47936 179.824 15.3786 3.91528 4.54188e-006 -4.6773e-006 -0.924139 -2.72666 -18.3412 0.20667 -1.6134e-006 -4.95199e-006 -0.289149 20.9707 70.4824 -21.8727 -8.16513 25.8159 3.4975 
48.6564 99.1935 3.04608 0.794955 4.86059 4.03764 0.221734 -2.21217 0.200086 0.448627 -0.420795 0.379917 0.444196 1.22423 0.37246 -5.11173 21.4499 2.13896 -0.268427 3.08113 0.529671 62.0129 -5.90362 -3.84328 114.96 19.741 0.922671 -3.59775e-006 1.24735e-007 2.91653e-007 18.0635 8.53555 -1.41587 -3.99779e-006 3.89604e-007 -3.00688 8.02927 -4.95139 0.697678 -61.9953 -4.5727 3.07123 -112.928 13.1074 -1.09448 -5.77782e-006 6.14791e-007 -1.03527e-006 -13.3148 9.38809 1.52394 7.69901e-006 7.99628e-007 3 -8.02886 -4.95144 -0.697669 -178.951 15.5497 -2.29258 180 7.01561e-015 178.986 178.089 19.2067 179.51 -5.35018e-007 -4.00494e-006 0.461743 -25.0989 71.5536 23.3826 8.13175 25.2381 -3.47936 179.859 15.6279 3.86209 4.54188e-006 -4.6773e-006 -0.924145 -2.75427 -18.6862 0.202201 -1.6134e-006 -4.95199e-006 -0.295821 21.0872 70.5906 -21.9869 -8.16696 25.8424 3.49871 
48.7083 99.0372 2.50417 0.773269 4.90531 4.01671 0.228241 -2.20192 0.205683 0.461747 -0.400241 0.390484 0.457199 1.24478 0.382809 -5.11955 21.4128 2.13558 -0.26825 3.03651 0.52513 61.9771 -5.89951 -3.83918 115.004 19.7762 0.971852 -3.59775e-006 1.24735e-007 2.91653e-007 17.9896 8.59687 -1.42868 -3.99779e-006 3.89604e-007 -3.00688 8.02927 -4.95139 0.697678 -61.9754 -4.55684 3.06083 -112.959 13.1157 -1.05793 -5.77782e-006 6.14791e-007 -1.03527e-006 -13.3194 9.45222 1.53269 7.69901e-006 7.99628e-007 3 -8.02886 -4.95144 -0.697669 -178.888 15.749 -2.34474 180 7.01561e-015 178.987 178.119 19.4403 179.498 -5.35018e-007 -4.00494e-006 0.465149 -25.1889 71.6252 23.4772 8.13175 25.2381 -3.47936 179.896 15.8795 3.80828 4.54188e-006 -4.6773e-006 -0.924134 -2.78218 -19.0328 0.197524 -1.6134e-006 -4.95199e-006 -0.302512 21.2052 70.6991 -22.1028 -8.16881 25.8689 3.49991 
48.6689 99.0345 2.59714 0.751167 4.95168 3.99662 0.234811 -2.19176 0.211091 0.474985 -0.379893 0.400665 0.470326 1.26513 0.39277 -5.12728 21.3734 2.13207 -0.26818 2.99243 0.520579 61.9417 -5.8955 -3.83516 115.046 19.8119 1.02032 -3.59775e-006 1.24735e-007 2.91653e-007 17.9163 8.65824 -1.44145 -3.99779e-006 3.89604e-007 -3.00688 8.02927 -4.95139 0.697678 -61.9546 -4.5422 3.05109 -112.992 13.1244 -1.02042 -5.77782e-006 6.14791e-007 -1.03527e-006 -13.3243 9.51711 1.54154 7.69901e-006 7.99628e-007 3 -8.02886 -4.95144 -0.697669 -178.825 15.952 -2.39641 180 7.01562e-015 178.988 178.149 19.6777 179.487 -5.35018e-007 -4.00494e-006 0.468681 -25.2819 71.6984 23.5747 8.13175 25.2381 -3.47936 179.933 16.1347 3.75351 4.54188e-006 -4.6773e-006 -0.924097 -2.81056 -19.382 0.192516 -1.6134e-006 -4.95199e-006 -0.309236 21.3252 70.8079 -22.2206 -8.17065 25.8955 3.50111 
48.7106 99.0184 2.67366 0.728478 5.00034 3.9777 0.24147 -2.18175 0.216238 0.48839 -0.359827 0.410316 0.483625 1.28519 0.402198 -5.13489 21.3309 2.12836 -0.268253 2.94907 0.516015 61.9069 -5.89165 -3.83126 115.088 19.8483 1.06778 -3.59775e-006 1.24735e-007 2.91653e-007 17.8438 8.7197 -1.45415 -3.99779e-006 3.89604e-007 -3.00688 8.02927 -4.95139 0.697678 -61.9327 -4.52921 3.04224 -113.026 13.1337 -0.981616 -5.77782e-006 6.14791e-007 -1.03527e-006 -13.3295 9.58302 1.55055 7.69901e-006 7.99628e-007 3 -8.02886 -4.95144 -0.697669 -178.762 16.1602 -2.44735 180 7.01562e-015 178.99 178.177 19.9203 179.475 -5.35018e-007 -4.00494e-006 0.472386 -25.3791 71.7738 23.6759 8.13175 25.2381 -3.47936 179.972 16.395 3.69742 4.54188e-006 -4.6773e-006 -0.924023 -2.83956 -19.7348 0.187056 -1.6134e-006 -4.95199e-006 -0.316004 21.4473 70.9173 -22.3406 -8.17251 25.9222 3.50229 
48.7003 98.9645 2.56428 0.705035 5.05189 3.96027 0.248242 -2.17191 0.221054 0.502011 -0.340121 0.419292 0.497147 1.30489 0.410947 -5.14236 21.2845 2.12441 -0.268508 2.90663 0.511432 61.8729 -5.88799 -3.82751 115.129 19.8856 1.11398 -3.59775e-006 1.24735e-007 2.91653e-007 17.7722 8.78126 -1.46675 -3.99779e-006 3.89604e-007 -3.00688 8.02927 -4.95139 0.697678 -61.9093 -4.51835 3.03453 -113.06 13.1437 -0.941145 -5.77782e-006 6.14791e-007 -1.03527e-006 -13.3351 9.65025 1.55975 7.69901e-006 7.99628e-007 3 -8.02886 -4.95144 -0.697669 -178.699 16.3749 -2.49734 180 7.01562e-015 178.991 178.204 20.1696 179.464 -5.35018e-007 -4.00494e-006 0.476311 -25.4815 71.852 23.7818 8.13175 25.2381 -3.47936 -179.988 16.6616 3.63968 4.54188e-006 -4.6773e-006 -0.923902 -2.86934 -20.092 0.181021 -1.6134e-006 -4.95199e-006 -0.322828 21.5719 71.0275 -22.463 -8.17438 25.949 3.50345 
